<svg width="216" height="73" viewBox="0 0 216 73" fill="none" xmlns="http://www.w3.org/2000/svg">
<g clip-path="url(#clip0_2_47)">
<path d="M199.372 67.0608L200.469 69.928H198.276L199.372 67.0608ZM201.588 72.8635H202.707L199.669 65.2631H199.121L196.06 72.8635H197.18L197.956 70.8837H200.834L201.611 72.8635H201.588ZM190.465 71.885H188.523V69.2681H190.419C191.424 69.2681 191.926 69.928 191.926 70.6107C191.926 71.2933 191.401 71.885 190.465 71.885ZM190.35 66.2188C191.104 66.2188 191.515 66.7194 191.515 67.2201C191.515 67.7662 191.127 68.3351 190.305 68.3351H188.5V66.2188H190.35ZM191.538 68.6992C192.178 68.4716 192.566 67.8345 192.566 67.1518C192.566 66.2188 191.881 65.2631 190.487 65.2631H187.495V72.8635H190.624C192.178 72.8635 192.977 71.7712 192.977 70.6789C192.977 69.8142 192.52 68.9722 191.561 68.6992H191.538ZM183.681 65.2631H182.539L180.575 69.1088L178.633 65.2631H177.491L180.049 70.11V72.8407H181.077V70.11L183.658 65.2631H183.681ZM172.649 65.2631V70.6789L168.035 65.2631H167.579V72.8635H168.584V67.4704L173.129 72.8635H173.654V65.2631H172.649ZM159.333 66.2416H160.887C161.777 66.2416 162.211 66.8332 162.211 67.5159C162.211 68.1986 161.8 68.813 160.681 68.813H159.333V66.2416ZM162.348 72.8635H163.604L161.503 69.7004C162.691 69.4274 163.262 68.4716 163.262 67.5386C163.262 66.4236 162.485 65.2858 160.887 65.2858H158.306V72.8862H159.333V69.8142H160.384L162.348 72.8862V72.8635ZM151.202 67.0608L152.299 69.928H150.106L151.202 67.0608ZM153.395 72.8635H154.514L151.476 65.2631H150.928L147.868 72.8635H148.987L149.763 70.8837H152.641L153.418 72.8635H153.395ZM142.34 66.2643V72.8635H143.368V66.2643H145.606V65.2631H140.079V66.2643H142.317H142.34ZM129.436 72.9772C130.852 72.9772 131.948 72.0898 131.948 70.7927C131.948 69.9735 131.514 69.4274 130.852 69.0178C130.326 68.7219 129.436 68.3351 129.024 68.0848C128.682 67.88 128.385 67.5614 128.385 67.1063C128.385 66.4919 128.91 66.0823 129.573 66.0823C130.075 66.0823 130.669 66.3098 131.103 66.9015L131.788 66.2416C131.194 65.4451 130.372 65.1266 129.55 65.1266C128.156 65.1266 127.266 66.0368 127.266 67.1746C127.266 67.9938 127.745 68.5626 128.408 68.9722C128.91 69.2908 129.527 69.4956 130.029 69.7687C130.44 69.9963 130.829 70.3148 130.829 70.8155C130.829 71.4299 130.326 71.976 129.436 71.976C128.727 71.976 128.042 71.6119 127.631 70.7699L126.877 71.4071C127.38 72.4539 128.408 72.9772 129.458 72.9772H129.436ZM119.546 71.976C117.924 71.976 116.691 70.7244 116.691 69.0633C116.691 67.4021 117.97 66.1278 119.546 66.1278C121.122 66.1278 122.401 67.3794 122.401 69.0633C122.401 70.7472 121.145 71.976 119.546 71.976ZM119.523 72.9772C121.738 72.9772 123.474 71.2251 123.474 69.0633C123.474 66.9015 121.716 65.1266 119.546 65.1266C117.376 65.1266 115.617 66.8787 115.617 69.1088C115.617 71.3388 117.285 72.9772 119.5 72.9772H119.523ZM109.085 72.9772C110.547 72.9772 111.62 72.0898 111.62 70.3831V65.2631H110.592V70.3376C110.592 71.4299 109.953 71.9987 109.085 71.9987C108.537 71.9987 107.943 71.7484 107.532 71.2478L106.915 71.9987C107.509 72.6814 108.308 72.9772 109.085 72.9772ZM102.119 65.2631V72.8635H103.146V65.2631H102.119ZM93.8961 66.2416H95.4493C96.34 66.2416 96.774 66.8332 96.774 67.5159C96.774 68.1986 96.3629 68.813 95.2437 68.813H93.8961V66.2416ZM96.911 72.8635H98.1672L96.0431 69.7004C97.2308 69.4274 97.8018 68.4716 97.8018 67.5386C97.8018 66.4236 97.0252 65.2858 95.4264 65.2858H92.8455V72.8862H93.8733V69.8142H94.9239L96.8882 72.8862L96.911 72.8635ZM85.765 67.0608L86.8613 69.928H84.6687L85.765 67.0608ZM87.9805 72.8635H89.0997L86.0619 65.2631H85.5138L82.4532 72.8635H83.5723L84.3489 70.8837H87.2268L88.0033 72.8635H87.9805ZM77.6567 65.2631V70.6789L73.043 65.2631H72.5862V72.8635H73.5912V67.4704L78.1364 72.8635H78.6617V65.2631H77.6339H77.6567ZM66.9675 65.2631V72.8635H67.9953V65.2631H66.9675ZM58.745 66.2416H60.2982C61.1889 66.2416 61.6229 66.8332 61.6229 67.5159C61.6229 68.1986 61.2118 68.813 60.0926 68.813H58.745V66.2416ZM61.7599 72.8635H63.0161L60.9148 69.7004C62.1025 69.4274 62.6735 68.4716 62.6735 67.5386C62.6735 66.4236 61.897 65.2858 60.2982 65.2858H57.7172V72.8862H58.745V69.8142H59.7957L61.7599 72.8862V72.8635ZM48.7867 72.8635H53.5146V71.885H49.8145V69.4956H53.2177V68.5171H49.8145V66.2416H53.5146V65.2631H48.7867V72.8635ZM41.7291 66.2643V72.8635H42.7569V66.2643H44.9952V65.2631H39.4907V66.2643H41.7291ZM31.3596 72.8635H36.0875V71.885H32.3874V69.4956H35.8134V68.5171H32.3874V66.2416H36.0875V65.2631H31.3596V72.8635ZM26.4946 65.2631L24.0964 71.0885L21.6982 65.2631H20.5333L23.7995 72.8635H24.3933L27.6138 65.2631H26.4946ZM188.774 53.817H190.328C191.218 53.817 191.652 54.4087 191.652 55.0913C191.652 55.774 191.241 56.3884 190.122 56.3884H188.774V53.817ZM191.789 60.4389H193.046L190.944 57.2759C192.132 57.0028 192.703 56.0471 192.703 55.1141C192.703 53.9991 191.926 52.8613 190.328 52.8613H187.747V60.4617H188.774V57.3896H189.825L191.789 60.4617V60.4389ZM182.128 52.8385V60.4389H183.156V52.8385H182.128ZM171.713 59.5514C170.091 59.5514 168.858 58.2999 168.858 56.6387C168.858 54.9775 170.137 53.7032 171.713 53.7032C173.289 53.7032 174.568 54.9548 174.568 56.6387C174.568 58.3226 173.312 59.5514 171.713 59.5514ZM171.69 60.5527C173.905 60.5527 175.641 58.8005 175.641 56.6387C175.641 54.4769 173.883 52.702 171.713 52.702C169.543 52.702 167.807 54.4542 167.807 56.6842C167.807 58.9143 169.474 60.5527 171.69 60.5527ZM161.595 53.8398V60.4389H162.622V53.8398H164.861V52.8385H159.333V53.8398H161.572H161.595ZM153.692 60.5527C155.108 60.5527 156.204 59.6652 156.204 58.3681C156.204 57.5489 155.77 56.98 155.108 56.5932C154.583 56.2746 153.692 55.9105 153.281 55.6602C152.938 55.4554 152.641 55.1368 152.641 54.6817C152.641 54.0673 153.167 53.6577 153.852 53.6577C154.331 53.6577 154.948 53.8853 155.382 54.4769L156.067 53.817C155.473 53.0206 154.651 52.702 153.829 52.702C152.436 52.702 151.545 53.6122 151.545 54.75C151.545 55.5692 152.024 56.1381 152.687 56.5477C153.212 56.8663 153.806 57.0711 154.309 57.3441C154.72 57.5717 155.108 57.8903 155.108 58.4136C155.108 59.028 154.605 59.5514 153.715 59.5514C153.007 59.5514 152.321 59.1873 151.91 58.3454L151.157 58.9825C151.682 60.0293 152.687 60.5527 153.738 60.5527H153.692ZM146.155 52.8385V60.4389H147.182V52.8385H146.155ZM139.051 54.6362L140.148 57.5034H137.955L139.051 54.6362ZM141.244 60.4389H142.363L139.325 52.8385H138.777L135.717 60.4389H136.836L137.612 58.4592H140.49L141.267 60.4389H141.244ZM124.433 60.4389H125.461V55.3189L128.065 59.1418H128.339L130.943 55.3189V60.4389H131.971V52.8385H131.468L128.225 57.6627L124.959 52.8385H124.456V60.4389H124.433ZM110.592 60.4389H115.32V59.4604H111.62V57.0711H115.023V56.0926H111.62V53.817H115.32V52.8385H110.592V60.4389ZM112.991 52.2469C113.379 52.2469 113.676 51.9283 113.676 51.5415C113.676 51.1546 113.356 50.836 112.991 50.836C112.625 50.836 112.283 51.1319 112.283 51.5415C112.283 51.9511 112.579 52.2469 112.991 52.2469ZM104.996 52.8613V58.2771L100.383 52.8613H99.9259V60.4617H100.954V55.0913L105.499 60.4617H106.024V52.8613H104.996ZM94.3073 52.8613V60.4617H95.3351V52.8613H94.3073ZM87.6836 59.4832H85.7422V56.8663H87.6607C88.6657 56.8663 89.1682 57.5262 89.1682 58.2088C89.1682 58.8915 88.6657 59.5059 87.7064 59.5059L87.6836 59.4832ZM87.5922 53.817C88.3459 53.817 88.7571 54.3176 88.7571 54.8183C88.7571 55.3644 88.3688 55.9333 87.5694 55.9333H85.7422V53.817H87.5922ZM88.7799 56.2974C89.4194 56.0698 89.8077 55.4327 89.8077 54.75C89.8077 53.817 89.1225 52.8385 87.7293 52.8385H84.7372V60.4389H87.8663C89.4194 60.4389 90.2188 59.3466 90.2188 58.2544C90.2188 57.3896 89.762 56.5477 88.8028 56.2746L88.7799 56.2974ZM80.9229 52.8613H79.7809L77.8166 56.707L75.8752 52.8613H74.7332L77.2913 57.731V60.4617H78.3191V57.731L80.9229 52.8613ZM68.4521 53.8625V60.4617H69.4799V53.8625H71.7183V52.8613H66.1909V53.8625H68.4293H68.4521ZM60.5494 60.5754C61.9655 60.5754 63.0618 59.688 63.0618 58.3909C63.0618 57.5717 62.6279 57.0028 61.9655 56.616C61.4402 56.2974 60.5494 55.9333 60.1383 55.683C59.7957 55.4782 59.4987 55.1596 59.4987 54.7045C59.4987 54.0901 60.0241 53.6805 60.6864 53.6805C61.1889 53.6805 61.7828 53.908 62.2167 54.4997L62.9019 53.8398C62.3081 53.0433 61.5087 52.7247 60.6864 52.7247C59.2932 52.7247 58.4024 53.635 58.4024 54.7727C58.4024 55.592 58.8821 56.1608 59.5444 56.5704C60.0469 56.889 60.6636 57.0938 61.1661 57.3669C61.5772 57.5944 61.9655 57.913 61.9655 58.4364C61.9655 59.0508 61.463 59.5742 60.5722 59.5742C59.8642 59.5742 59.179 59.2101 58.7679 58.3681L58.0141 59.0053C58.5166 60.0521 59.5444 60.5754 60.5951 60.5754H60.5494ZM49.7688 60.4617H54.8622V59.4604H50.7966V52.8613H49.7688V60.4617ZM42.6655 54.659L43.7618 57.5262H41.5692L42.6655 54.659ZM44.881 60.4617H46.0002L42.9624 52.8613H42.4143L39.3537 60.4617H40.4728L41.2494 58.4819H44.1273L44.9038 60.4617H44.881ZM35.9733 52.8613L33.5751 58.6867L31.1769 52.8613H30.012L33.2782 60.4617H33.872L37.0925 52.8613H35.9733Z" fill="#254970"/>
<path d="M57.6488 39.572H44.2872L62.4681 0H71.0788L85.5138 23.9389L98.213 0H106.915L126.74 39.572H113.402L101.251 15.1552L87.6608 39.572H83.3212L67.8127 14.9959L57.6488 39.572Z" fill="#254970"/>
<path fill-rule="evenodd" clip-rule="evenodd" d="M73.3171 3.95947L67.8126 14.9959L72.0381 21.7088L73.3171 3.95947Z" fill="#192F4E"/>
<path fill-rule="evenodd" clip-rule="evenodd" d="M176.098 13.221V0H189.345L176.098 13.221Z" fill="#E8A734"/>
<path d="M216 0H202.73V13.221H216V0Z" fill="#E8A734"/>
<path fill-rule="evenodd" clip-rule="evenodd" d="M202.798 13.221L202.73 0L210.45 13.221H202.798Z" fill="#BD6028"/>
<path fill-rule="evenodd" clip-rule="evenodd" d="M202.798 17.6584V30.9931H189.437L202.798 17.6584Z" fill="#E13D3D"/>
<path fill-rule="evenodd" clip-rule="evenodd" d="M189.414 13.221L202.73 0L202.798 13.221V17.6584L189.46 30.9931L189.414 13.221Z" fill="#007944"/>
<path fill-rule="evenodd" clip-rule="evenodd" d="M202.73 0L202.798 13.221H189.414L202.73 0Z" fill="#007944"/>
<path fill-rule="evenodd" clip-rule="evenodd" d="M189.46 30.9931L202.798 28.6948V39.7768H189.46V30.9931Z" fill="#E13D3D"/>
<path fill-rule="evenodd" clip-rule="evenodd" d="M108.08 2.32108L101.251 15.1552L105.271 23.2562L108.08 2.32108Z" fill="#192F4E"/>
<path d="M25.2841 23.7341L36.2018 0H49.1522L30.9713 39.6403L19.8253 39.663L0 0H12.9961L25.2841 23.7341Z" fill="#254970"/>
<path d="M145.469 23.7341L156.387 0H169.337L151.157 39.6403L140.011 39.663L120.185 0H133.181L145.469 23.7341Z" fill="#254970"/>
<path fill-rule="evenodd" clip-rule="evenodd" d="M25.2842 23.7341L32.0449 37.2737L29.4868 14.6091L25.2842 23.7341Z" fill="#192F4E"/>
<path fill-rule="evenodd" clip-rule="evenodd" d="M145.469 23.7341L152.23 37.2737L149.672 14.6091L145.469 23.7341Z" fill="#192F4E"/>
</g>
<defs>
<clipPath id="clip0_2_47">
<rect width="216" height="73" fill="white"/>
</clipPath>
</defs>
</svg>
